<svg xmlns="http://www.w3.org/2000/svg" version="1.1" xmlns:xlink="http://www.w3.org/1999/xlink" xmlns:svgjs="http://svgjs.dev/svgjs" viewBox="0 0 5.421444056304128 2.071720619135439"><g transform="matrix(0.768399326450111,0,0,0.768399326450111,0.8677109929260196,0.5975085762756008)"><g transform="matrix(1,0,0,1,0,0)" clip-path="url(#SvgjsClipPath34884)"><g clip-path="url(#SvgjsClipPath34882a3067582-9225-474e-9354-316d5e88d8da)"><path d=" M 4.635286721974452 0.7929331605095816 C 4.731704794725621 0.7616584358919529 4.797004346329123 0.6718373346460694 4.797013666684164 0.5704738645688793 C 4.797004346329141 0.4691103944917303 4.731704794725655 0.3792892932458348 4.635286721974491 0.348014568628189 C 4.6591760054130615 0.3105394834325654 4.671834121569665 0.26700708774203935 4.6717641945077855 0.22256527202941778 C 4.671765508335222 0.09344502310010491 4.567094626957965 -0.01122905342540817 4.437974378047157 -0.01123168101927155 C 4.437294023464644 -0.01123168101927155 4.43661842660802 -0.01120789239755901 4.435940450889225 -0.011203134673216847 C 4.399147208584601 -0.0973204244434021 4.314524942767974 -0.1531814535971137 4.2208770374388145 -0.15317125018885824 C 4.091758102317254 -0.15317256401544121 3.9870850908453055 -0.048502747690362655 3.9870824632522965 0.08061618741114618 L 3.9870824632522965 0.6003975718205299 L 4.093305795783337 0.49417186042731875 L 4.118238650199789 0.4692342482865244 L 4.118238650199789 0.3667742757103388 C 4.114447164782204 0.36446172286449263 4.110944600499177 0.36170582926195616 4.107804960716861 0.3585648223574932 C 4.097354630958498 0.34811672178271824 4.091483509402021 0.33394471839778433 4.091483509402021 0.31916729650899905 C 4.091483509402021 0.3043898746202135 4.097354630958498 0.29021787123527965 4.107804960716861 0.2797697706605046 C 4.118285479664943 0.2692612308483709 4.132535961612639 0.26338456681704003 4.14737733293494 0.2634507761660045 C 4.162216901169849 0.2633866366626815 4.176465138892412 0.26926308172832086 4.1869449474286755 0.2797697706605046 C 4.208701626896342 0.3015292406732027 4.208701626896342 0.33680535234479547 4.1869449474286755 0.35856482235749354 C 4.18380326680907 0.3617064839850066 4.18029826036133 0.36446241409463276 4.176504121359235 0.3667742757103395 L 4.176504121359235 0.4692342482865247 L 4.20144173350003 0.4941718604273191 L 4.331696331684633 0.6244335951984359 L 4.378098417196254 0.6708214075370309 L 4.378098417196254 0.9550216922693171 C 4.382280456893241 0.9574005544405273 4.377249163401133 0.9514177160799342 4.389783388181238 0.9639519408600397 C 4.402317612961344 0.9764861656401451 4.411293059933318 1.0203476263529148 4.389783388181238 1.041850161518482 C 4.379455466879142 1.0521821033068595 4.365445386280468 1.057986865861382 4.350836656714188 1.057986865861382 C 4.336227927147908 1.057986865861382 4.3222178465492345 1.0521821033068595 4.311889925247138 1.041850161518482 C 4.290382632357228 1.020335732042059 4.299006007727865 0.9768429949658266 4.311889925247138 0.9639519408600397 C 4.324773842766412 0.9510608867542529 4.320943874670763 0.9562777314957163 4.326046534028009 0.953703802626467 L 4.326046534028009 0.692383414256878 L 4.294883439585158 0.6612203198140267 L 4.270014814447329 0.6363493158140263 L 4.146951516606293 0.7594126136550615 L 4.115788422163442 0.7905757080979124 L 4.115788422163442 0.9022918333822763 C 4.121020413458135 0.9049336504738097 4.1257963860553275 0.9083949657409862 4.129935515495628 0.9125447293401914 C 4.140265856964385 0.9228720514326842 4.146069636259436 0.936880718370324 4.146069636259436 0.9514878925139842 C 4.146069636259436 0.9660950666576447 4.140265856964385 0.9801037335952845 4.129935515495628 0.9904310556877773 C 4.119607284589938 1.0007624142754978 4.105597320023309 1.006566774091551 4.090988784028578 1.006566774091551 C 4.076380248033848 1.006566774091551 4.062370283467219 1.0007624142754978 4.052042052561528 0.9904310556877771 C 4.030535147852571 0.9689230048752184 4.030535147852571 0.9340527801527501 4.052042052561528 0.9125447293401914 C 4.055528126673179 0.9090571789354651 4.059466141043525 0.9060528628118063 4.063750812168224 0.903612101887298 L 4.063750812168224 0.769011322515894 L 4.110138624506819 0.7226235101772993 L 4.233201922347854 0.5995625911984351 L 4.164626462538383 0.5309776159402797 L 4.147363059761912 0.5137189708881513 L 4.130092520398928 0.5309776159402797 L 3.9998379222143248 0.6612369718492251 L 3.9870681900792695 0.6740090828464517 L 3.9870681900792695 1.0603362994509544 C 3.9870675591618827 1.1223428879243786 4.011699138267155 1.1818100638226405 4.055544194394161 1.225655566073139 C 4.099389250521166 1.269501068323638 4.15885617579128 1.2941332525031357 4.220862764266851 1.294133252499644 C 4.314511811116436 1.2941426420314457 4.39913439224079 1.2382795326793827 4.4359261777161985 1.1521603792596604 C 4.436604153434994 1.1521603792596604 4.437279750291617 1.1521841678813725 4.437960104872583 1.1521841678813725 C 4.499965212771019 1.152184798806445 4.55943093396459 1.1275536450421184 4.603275166230047 1.083709412776661 C 4.647119398495505 1.0398651805112034 4.671750552259832 0.9803994593176326 4.671749921334759 0.9183943514191966 C 4.671820247151122 0.8739524792298992 4.659162099105426 0.8304199738699214 4.635272448801432 0.7929450548204497 Z M 3.240709699310819 0.7929331605095816 C 3.1442916414251982 0.7616588768569919 3.0789926206671514 0.6718371846030978 3.078985133463279 0.5704738645688795 C 3.0789926206671043 0.46911054453476864 3.1442916414251094 0.3792888522808445 3.2407096993107163 0.3480145686282098 C 3.2168201527046794 0.31053972717823386 3.2041627716576864 0.26700702062940357 3.2042346056396567 0.22256527202941778 C 3.2042332917508243 0.09344688104265947 3.308901273487554 -0.011226425901239456 3.4380196643757728 -0.01123168101927155 C 3.438704776682798 -0.01123168101927155 3.439382752401593 -0.01120789239755901 3.4400583492582166 -0.011203134673216847 C 3.476851591562841 -0.0973204244434021 3.5614738573794673 -0.1531814535971143 3.6551217627086277 -0.15317125018885824 C 3.7842388398310898 -0.15316993643465251 3.8889089516156043 -0.04850088969126379 3.888911579170803 0.08061618741114618 L 3.888911579170803 0.6003975718205299 L 3.782688246639763 0.49417186042731875 L 3.7577601499476536 0.4692342482865244 L 3.7577601499476536 0.3667742757103388 C 3.7615512229806694 0.36446112931632424 3.765053719778791 0.36170528881237596 3.7681938394305807 0.3585648223574929 C 3.7786453355048932 0.3481173409229311 3.7845172624647 0.33394510549805045 3.7845172624647 0.31916729650899905 C 3.7845172624647 0.3043894875199477 3.7786453355048932 0.29021725209506677 3.7681938394305807 0.2797697706605046 C 3.757713299802089 0.26926271901005133 3.743464185818369 0.26338626584615116 3.728623846074674 0.2634507761660045 C 3.7137834023005003 0.26338573465555953 3.6995340916859853 0.269262268911636 3.689053852718766 0.279769770660504 C 3.6786046889676274 0.2902184901332869 3.672734372548284 0.30439026156558024 3.672734372548284 0.31916729650899905 C 3.672734372548284 0.33394433145241764 3.6786046889676274 0.34811610288471095 3.689053852718766 0.35856482235749354 C 3.6921938268955685 0.3617064370199765 3.695697253942603 0.3644623811137344 3.699489921063864 0.36677427571033916 L 3.699489921063864 0.4692342482865247 L 3.6745523089230705 0.4941718604273191 L 3.5442977107384674 0.6244335951984359 L 3.497909898399872 0.6708214075370309 L 3.497909898399872 0.9550216922693171 C 3.493723100978543 0.9574005544405273 3.498752015608481 0.9514177160799342 3.486215411966204 0.9639519408600397 C 3.473678808323927 0.9764861656401451 3.4647104979384657 1.0203476263529148 3.486215411966204 1.041850161518482 C 3.4965441455508257 1.0521823925797873 3.510555013879114 1.0579872736508735 3.5251645222954253 1.0579872736508735 C 3.5397740307117367 1.0579872736508735 3.553784899040025 1.0521823925797873 3.5641136326246468 1.041850161518482 C 3.585623304376727 1.020335732042059 3.5769999290060905 0.9768429949658266 3.5641136326246463 0.9639519408600397 C 3.5512273362432016 0.9510608867542529 3.5550620620631923 0.9562777314957163 3.5499594027059467 0.953703802626467 L 3.5499594027059467 0.692383414256878 L 3.5811224971487974 0.6612203198140267 L 3.6059935011487982 0.6363493158140263 L 3.7290449046789775 0.7594197502415754 L 3.7602079991218287 0.7905828446844263 L 3.7602079991218287 0.90229896996879 C 3.7549726917128243 0.904938842864353 3.750194073277844 0.9084003294954062 3.746053769203129 0.9125518659267049 C 3.7357234277343716 0.9228791880191982 3.7299196484393207 0.9368878549568376 3.7299196484393207 0.9514950291004982 C 3.7299196484393207 0.9661022032441589 3.7357234277343716 0.980110870181798 3.746053769203129 0.9904381922742913 C 3.75638200010882 1.0007695508620118 3.770391964675448 1.0065739106780651 3.785000500670179 1.0065739106780651 C 3.7996090366649096 1.0065739106780651 3.8136190012315376 1.0007695508620118 3.823947232137229 0.9904381922742915 C 3.8342787400665217 0.9801114894354543 3.84008332488958 0.9661025904169764 3.84008332488958 0.9514950291004982 C 3.84008332488958 0.9368874677840195 3.8342787400665217 0.9228785687655416 3.823947232137229 0.9125518659267049 C 3.820468876840529 0.909063224339649 3.816536091010706 0.9060594241351416 3.812255124565732 0.9036216173359826 L 3.812255124565732 0.7690208379645787 L 3.765867312227137 0.722633025625984 L 3.6428040143861016 0.5995721066471198 L 3.711384231919914 0.5309871313889643 L 3.7286476346963853 0.5137284863368359 L 3.7459110374728564 0.5309871313889643 L 3.8761656356574594 0.6612464872979097 L 3.8889353677925147 0.6740185982951363 L 3.8889353677925147 1.0603458148996394 C 3.8889366816199518 1.1894660638289525 3.7842658002426934 1.2941401403544657 3.6551455513318856 1.2941427679483286 C 3.561496504479691 1.2941521574801302 3.476873923355337 1.2382890481280673 3.4400821378799287 1.1521698947083452 C 3.439406541023305 1.1521698947083452 3.43872856530451 1.152193683330057 3.438043452999201 1.152193683330057 C 3.376039169429363 1.1521930524197923 3.316574670516715 1.1275613416052577 3.272731467265065 1.0837172461072146 C 3.228888264013415 1.0398731506091718 3.2042577633446836 0.9804081504377202 3.2042583942613683 0.9184038668678816 C 3.204186161448734 0.873962061792694 3.2168435743916914 0.8304292455436362 3.2407334879325345 0.792954570269117 Z M 3.384271652481171 0.5146062864780123 L 3.384554737079545 0.5148941288007287 L 3.373214701109387 0.526234164770887 L 3.3268268887707917 0.572636250282509 L 3.3268268887707917 0.7072370296539127 C 3.322546896578803 0.7096753568856158 3.3186142784923858 0.7126782288445832 3.315134781199295 0.7161648993824641 C 3.3048042950717744 0.7264926275987232 3.2990004564992126 0.7405016884074773 3.2990004564992126 0.7551092519873429 C 3.2990004564992126 0.7697168155672085 3.3048042950717744 0.7837258763759621 3.315134781199295 0.7940536045922216 C 3.3254627025013916 0.8043855463805989 3.3394727831000646 0.8101903089351215 3.3540815126663452 0.8101903089351215 C 3.368690242232626 0.8101903089351215 3.3827003228312984 0.8043855463805987 3.3930282441333954 0.7940536045922216 C 3.403358730260916 0.7837258763759621 3.4091625688334775 0.7697168155672085 3.4091625688334775 0.7551092519873429 C 3.4091625688334775 0.7405016884074773 3.403358730260916 0.7264926275987232 3.3930282441333954 0.7161648993824641 C 3.3888888707917344 0.7120135509700432 3.384110016115379 0.7085534995505915 3.378874014214696 0.7059167611488915 L 3.378874014214696 0.5941982570023566 L 3.410022835484519 0.5630351625595057 L 3.5402798125312938 0.43277580665056004 L 3.560583401162571 0.41247459688145405 L 3.560300316564197 0.4121891334209088 L 3.5716474891208683 0.4008419608642373 L 3.618035301459463 0.3544541485256423 L 3.618035301459463 0.2198462325677248 C 3.6223145192729955 0.21740592078752813 3.6262462989742756 0.21440147781269953 3.629725030168789 0.21091360511483087 C 3.6512324791786113 0.189403921769854 3.6512324791786113 0.1545322043878795 3.629725030168789 0.1330225210429023 C 3.6082107218245825 0.1115150241863202 3.573336360130211 0.1115150241863202 3.551822051786004 0.1330225210429023 C 3.530319855532604 0.1545343797253368 3.530319855532604 0.18940174643239638 3.551822051786004 0.21091360511483087 C 3.555965912923374 0.21506686359787291 3.5607485978689852 0.21852919018066574 3.5659881760155594 0.22116887993491768 L 3.5659881760155594 0.33288500521928077 L 3.5348250815727087 0.3640480996621317 L 3.404572862250277 0.494302697846735 L 3.384264515894657 0.514603907615841 Z M 4.491722389941929 0.5146062864780123 L 4.491439305343555 0.5148941288007287 L 4.502781720175884 0.526234164770887 L 4.549183805687506 0.572636250282509 L 4.549183805687506 0.7072370296539127 C 4.5534611921316515 0.7096760353828994 4.5573913639881996 0.7126788723083116 4.56086877667249 0.7161648993824639 C 4.571199262800011 0.7264926275987232 4.577003101372572 0.7405016884074773 4.577003101372572 0.7551092519873429 C 4.577003101372572 0.7697168155672085 4.571199262800011 0.7837258763759621 4.56086877667249 0.7940536045922216 C 4.550540855370393 0.8043855463805989 4.5365307747717205 0.8101903089351215 4.521922045205439 0.8101903089351215 C 4.507313315639159 0.8101903089351215 4.493303235040486 0.8043855463805989 4.48297531373839 0.7940536045922216 C 4.472644827610869 0.7837258763759621 4.466840989038307 0.7697168155672085 4.466840989038307 0.7551092519873429 C 4.466840989038307 0.7405016884074773 4.472644827610869 0.7264926275987232 4.48297531373839 0.7161648993824641 C 4.487116423287798 0.7120145346237693 4.491895891973373 0.7085546201392358 4.4971319225192605 0.7059167611488915 L 4.4971319225192605 0.5941982570023566 L 4.465968828076409 0.5630351625595057 L 4.335711851029635 0.43277580665056004 L 4.3154130201227 0.41247459688145405 L 4.3156961047210745 0.4121891334209088 L 4.304348932164403 0.4008419608642373 L 4.257961119825808 0.3544541485256423 L 4.257961119825808 0.2198462325677248 C 4.253681459323598 0.21740767288317825 4.249750241720301 0.21440304798996035 4.246273769978653 0.21091360511483087 C 4.224766320968831 0.189403921769854 4.224766320968831 0.1545322043878795 4.246273769978653 0.1330225210429023 C 4.267786445954107 0.11151556876661178 4.302659314661642 0.11151556876661178 4.324171990637096 0.1330225210429023 C 4.345679439646918 0.1545322043878795 4.345679439646918 0.189403921769854 4.324171990637096 0.21091360511483087 C 4.320029836483011 0.21506676315236706 4.315248731655551 0.21852910867751052 4.310010624131882 0.22116887993491707 L 4.310010624131882 0.33288500521928077 L 4.341173718574733 0.3640480996621317 L 4.471423559034994 0.494302697846735 Z" fill="#ffffff" transform="matrix(1,0,0,1,0,0)" fill-rule="evenodd"></path></g></g><g><path d=" M 1.3625274395364673 0.35227418365082874 Q 1.3602740865493619 0.36278983092398776 1.3527629099256768 0.3687987722229358 Q 1.3452517333019918 0.3748077135218839 1.3362383213535696 0.3748077135218839 Q 1.3227182034309366 0.3748077135218839 1.314455909144883 0.36616986040464605 Q 1.3061936148588296 0.3575320072874083 1.3061936148588296 0.3462652423518807 Q 1.3061936148588296 0.33499847741635314 1.308446967845935 0.3241072713120098 Q 1.3107003208330406 0.31321606520766654 1.3107003208330406 0.3027004179345074 Q 1.3107003208330406 0.24786882858160664 1.2769000260264578 0.20430400416423333 Q 1.243099731219875 0.16073917974686003 1.1811325240744734 0.13107003208330403 Q 1.1191653169290718 0.10140088441974826 1.0305334327695883 0.08562741351000969 Q 0.9419015486101048 0.06985394260027089 0.8329894875666716 0.06985394260027089 Q 0.7496154270437676 0.06985394260027089 0.6651146900273108 0.08074514870461424 Q 0.5806139530108541 0.0916363548089576 0.5028732749557139 0.11229209052409161 Q 0.4251325969005736 0.1329478262392254 0.3575320072874082 0.16411920922751833 Q 0.2899314176742428 0.19529059221581124 0.2399820931267372 0.2362265048148947 Q 0.19003276857923165 0.2771624174139783 0.1614902974092285 0.32711174196148385 Q 0.13294782623922533 0.3770610665089894 0.13294782623922533 0.4363993618361013 Q 0.13294782623922533 0.48221753924058 0.15285244429199069 0.5171445105407155 Q 0.17275706234475605 0.552071481840851 0.20730847481370726 0.5779850411925643 Q 0.24185988728265848 0.6038986005442778 0.28880474118069 0.6223009832723061 Q 0.33574959507872154 0.6407033660003345 0.3905811844316224 0.6530968074294148 Q 0.4454127737845232 0.6654902488584951 0.504751069111635 0.6733769843133645 Q 0.5640893644387469 0.6812637197682337 0.6241787774282274 0.6865215434048133 L 0.739850897432977 0.6962860730156039 Q 0.8262294286053551 0.7037972496392888 0.894581135880889 0.7120595439253424 Q 0.9629328431564229 0.720321838211396 1.0147599618598497 0.7330908384716606 Q 1.1011384930322277 0.7548732506803472 1.1424499644624955 0.7954336044482464 Q 1.1837614358927633 0.8359939582161457 1.1837614358927633 0.903594547829311 Q 1.1837614358927633 0.9689417844553709 1.147707788099075 1.0185155501716923 Q 1.1116541403053868 1.0680893158880136 1.049311374328801 1.1018896106945963 Q 0.986968608352215 1.135689905501179 0.903594547829311 1.1529656117356546 Q 0.8202204873064071 1.1702413179701303 0.7248285441856069 1.1702413179701303 Q 0.6211743067787533 1.1702413179701303 0.5426825110612445 1.156345641216313 Q 0.46419071534373585 1.1424499644624955 0.4112369201467563 1.1255498170592042 Q 0.3582831249497767 1.108649669655913 0.33049177144214203 1.0943784340709113 Q 0.30270041793450736 1.0801071984859096 0.3004470649474018 1.0786049631611727 Q 0.28692694702476873 1.0710937865374877 0.28692694702476873 1.0545691979653806 Q 0.28692694702476873 1.041800197705116 0.2959403589731908 1.0339134622502466 Q 0.30495377092161285 1.0260267267953773 0.3154694181947719 1.0260267267953773 Q 0.3237317124808255 1.0260267267953773 0.33049177144214203 1.0305334327695883 Q 0.33124288910451055 1.0305334327695883 0.35640533079385545 1.0436779918610373 Q 0.38156777248320034 1.056822550952486 0.4315170970307059 1.0725960218622246 Q 0.48146642157821146 1.0883694927719632 0.5550759524903249 1.1011384930322279 Q 0.6286854834024383 1.1139074932924924 0.726330779510344 1.1139074932924924 Q 0.823224957955881 1.1139074932924924 0.897585606530363 1.0981340223827538 Q 0.9719462551048449 1.0823605514730152 1.022646697314719 1.0541936391341962 Q 1.073347139524593 1.0260267267953773 1.0992606988763065 0.9880952848457678 Q 1.12517425822802 0.9501638428961584 1.12517425822802 0.9058479008164166 Q 1.12517425822802 0.8795587826335189 1.1157852874484135 0.8604052822431221 Q 1.1063963166688073 0.8412517818527252 1.0898717280967 0.8273561050989079 Q 1.073347139524593 0.8134604283450906 1.0504380508223536 0.8036958987342999 Q 1.0275289621201142 0.7939313691235095 1.000488726274848 0.7871713101621929 Q 0.9719462551048449 0.7796601335385078 0.9392726367918149 0.7744023099019284 Q 0.906599018478785 0.7691444862653487 0.8720476060098339 0.7653888979535062 Q 0.8374961935408827 0.7616333096416636 0.8025692222407471 0.7586288389921897 Q 0.7676422509406117 0.7556243683427157 0.733841956134029 0.7526198976932417 L 0.6181698361292792 0.7428553680824511 Q 0.48146642157821146 0.7315886031469235 0.3796899783272791 0.7079283967823157 Q 0.2779135350763467 0.6842681904177077 0.2103129454631813 0.6470878661304668 Q 0.14271235585001588 0.6099075418432258 0.10891206104343316 0.558080423139799 Q 0.07511176623685045 0.5062533044363722 0.07511176623685045 0.43715047949846975 Q 0.07511176623685045 0.3665454192358303 0.1070342668875119 0.30758268273990275 Q 0.13895676753817335 0.2486199462439751 0.19416391572225844 0.20129953351475927 Q 0.24937106390634353 0.15397912078554354 0.3233561536496412 0.11905214948540799 Q 0.3973412433929389 0.08412517818527254 0.48146642157821146 0.06084053065184891 Q 0.5655915997634839 0.03755588311842528 0.6557257192477045 0.025913559351713467 Q 0.7458598387319251 0.014271235585001651 0.8329894875666716 0.014271235585001651 Q 0.9419015486101048 0.014271235585001651 1.022646697314719 0.02741579467645039 Q 1.1033918460193333 0.04056035376789935 1.1608523471905239 0.06121608948303314 Q 1.2183128483617145 0.08187182519816716 1.255117613817771 0.10816094338106463 Q 1.291922379273828 0.13445006156396233 1.314455909144883 0.15998806208449157 Q 1.367785263173047 0.2223308280610774 1.367785263173047 0.30194930027213895 Q 1.367785263173047 0.32823841845503654 1.3625274395364673 0.35227418365082874 M 2.6732277603695076 0.6189209537916479 Q 2.7378238793331993 0.636947777688492 2.7832664979064936 0.6602324252219156 Q 2.8287091164797884 0.6835170727553392 2.859880499468081 0.7086795144446841 Q 2.891051882456374 0.733841956134029 2.909078706353218 0.7601310743169267 Q 2.9271055302500626 0.7864201924998244 2.936870059860853 0.8104559576956165 Q 2.9466345894716435 0.8344917228914086 2.9492635012899333 0.8551474586065426 Q 2.951892413108223 0.8758031943216764 2.951892413108223 0.8900744299066781 Q 2.951892413108223 0.9426526662724733 2.9319877950554574 0.983964137702741 Q 2.9120831770026925 1.0252756091330089 2.8782828821961095 1.056822550952486 Q 2.8444825873895265 1.0883694927719632 2.799791086478601 1.1101519049806499 Q 2.7550995855676748 1.1319343171893366 2.7062769375137217 1.1458299939431538 Q 2.6574542894597695 1.1597256706969712 2.6063782884187106 1.1661101708271036 Q 2.5553022873776525 1.1724946709572357 2.5094841099731737 1.1724946709572357 Q 2.4351234613986916 1.1724946709572357 2.3558805480188143 1.1574723177098656 Q 2.2766376346389374 1.1424499644624955 2.1955169271031387 1.108649669655913 Q 2.1774901032062948 1.1011384930322279 2.1774901032062948 1.0823605514730152 Q 2.1774901032062948 1.0695915512127505 2.1865035151547167 1.0617048157578812 Q 2.1955169271031387 1.053818080303012 2.206032574376298 1.053818080303012 Q 2.2112903980128773 1.053818080303012 2.2172993393118254 1.0560714332901175 Q 2.2871532819120963 1.0853650221224893 2.36076281282421 1.1003873753698592 Q 2.4343723437363236 1.1154097286172293 2.5087329923108053 1.1154097286172293 Q 2.6101338767305533 1.1154097286172293 2.682992289980298 1.0958806693956482 Q 2.755850703230043 1.076351610174067 2.802795557128075 1.0444291095234057 Q 2.849740411026106 1.0125066088727444 2.872273940897162 0.9723218139360292 Q 2.8948074707682165 0.9321370189993143 2.8948074707682165 0.8908255475690465 Q 2.8948074707682165 0.8450073701645677 2.869645029078872 0.8059492517214055 Q 2.8444825873895265 0.7668911332782433 2.7982888511538637 0.7360953091211346 Q 2.752095114918201 0.705299484964026 2.6874989959545097 0.6835170727553392 Q 2.622902876990818 0.6617346605466526 2.544035522442125 0.6512190132734936 Q 2.4922084037386982 0.6602324252219156 2.443385755684745 0.6639880135337581 Q 2.3945631076307925 0.6677436018456007 2.353251636200525 0.6677436018456007 L 2.3359759299660494 0.6677436018456007 Q 2.3307181063294697 0.6677436018456007 2.326211400355259 0.6669924841832322 Q 2.272130928664726 0.7969358397729834 2.19739472125906 0.891576665231415 Q 2.122658513853394 0.9862174906898467 2.038157776836937 1.0481846978352483 Q 1.9536570398204804 1.1101519049806499 1.8646495968298127 1.1398210526442059 Q 1.775642153839145 1.1694902003077616 1.6937703286409778 1.1694902003077616 Q 1.6088940327933368 1.1694902003077616 1.537913413699513 1.1458299939431538 Q 1.4669327946056894 1.122169787578546 1.4158567935646311 1.0786049631611727 Q 1.3647807925235729 1.0350401387437993 1.3362383213535696 0.9730729315983978 Q 1.3076958501835665 0.9111057244529961 1.3076958501835665 0.8344917228914086 Q 1.3076958501835665 0.7548732506803472 1.3388672331718594 0.6696213960015219 Q 1.3700386161601523 0.5843695413226967 1.4316302644743697 0.4964887748255816 Q 1.490217442139113 0.4138658319650461 1.561573620064121 0.348143036507802 Q 1.6329297979891289 0.28242024105055785 1.7114215937066377 0.23284647533423652 Q 1.7899133894241464 0.1832727096179152 1.8732874499470504 0.14797017948659552 Q 1.9566615104699543 0.11266764935527585 2.038908894499306 0.09013411948422068 Q 2.121156278528657 0.06760058961316551 2.1996480742461655 0.057460501171190614 Q 2.2781398699636743 0.047320412729215944 2.3472426949015768 0.047320412729215944 Q 2.4035765195792145 0.047320412729215944 2.454652520620273 0.05107600104105847 Q 2.5057285216613314 0.054831589352901 2.5522978167281787 0.062342765976586056 Q 2.5793380525734446 0.03229805948184583 2.595862641145552 0.01915350039039687 Q 2.612387229717659 0.006008941298948134 2.6146405827047645 0.004506705974210989 Q 2.6236539946531865 0 2.630414053614503 0 Q 2.640929700887662 0 2.649191995173716 0.006008941298948134 Q 2.6574542894597695 0.012017882597896046 2.6574542894597695 0.02328464753342363 Q 2.6574542894597695 0.03830700078079374 2.64693864218661 0.048447089222768636 Q 2.636422994913451 0.05858717766474353 2.618396171016607 0.07586288389921902 Q 2.755850703230043 0.10966317870580178 2.8287091164797884 0.1776393271501514 Q 2.901567529729533 0.24561547559450103 2.901567529729533 0.34551412468951215 Q 2.901567529729533 0.40034571404241304 2.883540705832689 0.44391053845978634 Q 2.865513881935845 0.48747536287715953 2.834342498947552 0.5205245400213737 Q 2.803171115959259 0.553573717165588 2.7614840856978073 0.5779850411925643 Q 2.719797055436355 0.6023963652195408 2.6732277603695076 0.6189209537916479 M 2.544786640104493 0.5941340709334872 Q 2.5778358172487077 0.5881251296345391 2.612762788548843 0.5783606000237486 Q 2.6476897598489786 0.568596070412958 2.681114495824377 0.5547003936591407 Q 2.7145392317997756 0.5408047169053234 2.7445839382945154 0.5216512165149265 Q 2.7746286447892556 0.5024977161245296 2.796786615829127 0.4765841567728162 Q 2.818944586868998 0.4506705974211028 2.8320891459604463 0.4183725379392571 Q 2.8452337050518954 0.3860744784574114 2.8452337050518954 0.3447630070271437 Q 2.8452337050518954 0.26063782884187114 2.7753797624516245 0.20580623948897037 Q 2.7055258198513537 0.15097465013606948 2.5748313465992334 0.12468553195317189 Q 2.5372754634808086 0.17125482702001915 2.5042262863365945 0.22758865169765696 Q 2.47117710919238 0.2839224763752948 2.443385755684745 0.34438744819595946 Q 2.4155944021771107 0.404852420016624 2.39343643113724 0.46681962716202563 Q 2.371278460097369 0.5287868343074273 2.357007224512367 0.5866228943098022 Q 2.3720295777597373 0.5858717766474336 2.384798578020002 0.5858717766474336 Q 2.397567578280267 0.5858717766474336 2.4065809902286883 0.5858717766474336 Q 2.4358745790610605 0.5858717766474336 2.4704259915300115 0.5877495708033549 Q 2.5049774039989625 0.5896273649592761 2.544786640104493 0.5941340709334872 M 2.510986345297911 0.11416988468001277 Q 2.4726793445171174 0.10891206104343332 2.432118990749218 0.10665870805632771 Q 2.3915586369813187 0.1044053550692221 2.3472426949015768 0.1044053550692221 Q 2.2811443406131486 0.1044053550692221 2.2067836920386665 0.11416988468001277 Q 2.1324230434641844 0.12393441429080343 2.05430680657786 0.14496570883712145 Q 1.9761905696915356 0.1659970033834396 1.8969476563116583 0.199421739358838 Q 1.817704742931781 0.23284647533423652 1.7429685355261149 0.279791329232268 Q 1.6682323281204487 0.3267361831302996 1.6006317385072832 0.38907894910688545 Q 1.5330311488941177 0.4514217150834713 1.4774484418788485 0.5295379519697958 Q 1.4211146172012106 0.6091564241808572 1.3925721460312075 0.6865215434048133 Q 1.3640296748612042 0.7638866626287693 1.3640296748612042 0.8337406052290401 Q 1.3640296748612042 0.8990878418551 1.3876898812258123 0.9509149605585269 Q 1.4113500875904201 1.0027420792619537 1.4549149120077933 1.0384201682244576 Q 1.4984797364251665 1.0740982571869617 1.5593202670770154 1.0932517575773586 Q 1.6201607977288643 1.1124052579677555 1.6937703286409778 1.1124052579677555 Q 1.7673798595530912 1.1124052579677555 1.8469983317641527 1.0857405809536735 Q 1.926616803975214 1.0590759039395916 2.002479687874433 1.0038687557555064 Q 2.078342571773652 0.9486616075714214 2.146694279049186 0.8641608705549646 Q 2.21504598632472 0.7796601335385078 2.2661219873657785 0.6632368958713897 Q 2.2526018694431453 0.6632368958713897 2.2383306338581437 0.6553501604165204 Q 2.224059398273142 0.6474634249616511 2.224059398273142 0.6301877187271754 Q 2.224059398273142 0.6121608948303313 2.2413351045076175 0.604274159375462 Q 2.258610810742093 0.5963874239205927 2.29541557619815 0.5911296002840132 Q 2.3156957530820996 0.5295379519697958 2.3367270476284174 0.46794630365557843 Q 2.357758342174736 0.40635465534136106 2.3832963426952647 0.3462652423518807 Q 2.408834343215794 0.28617582936240027 2.439630167372903 0.2279642105288412 Q 2.4704259915300115 0.16975259169528212 2.510986345297911 0.11416988468001277" fill="#ffffff" fill-rule="nonzero"></path></g><g></g></g><defs><clipPath id="SvgjsClipPath34884"><path d=" M 3.078985133463279 -0.15317125018885824 h 1.7180285332208844 v 1.447290229515475 h -1.7180285332208844 Z"></path></clipPath><clipPath id="SvgjsClipPath34882a3067582-9225-474e-9354-316d5e88d8da"><path d=" M 3.078985133463279 -0.15317125018885824 L 4.797013666684164 -0.15317125018885824 L 4.797013666684164 1.2941189793266168 L 3.078985133463279 1.2941189793266168 Z"></path></clipPath></defs></svg>